<?xml version="1.0" encoding="utf-8"?>
<!-- Generator: Adobe Illustrator 25.2.1, SVG Export Plug-In . SVG Version: 6.00 Build 0)  -->
<svg version="1.1" baseProfile="basic" xmlns="http://www.w3.org/2000/svg" xmlns:xlink="http://www.w3.org/1999/xlink" x="0px"
	 y="0px" viewBox="0 0 2000 2000" xml:space="preserve">
<g id="Слой_1">
	<g>
		<path fill="#EEBE78" d="M739.8,519.6c125,54.5,255.6,114.5,392.9,128.6c131,13.5,375.2-91.4,375.2-91.4l-2.9,3.5
			c-186.9,232.3-264.5,314.4-457.3,388.3c37.7,4.8,74.5,6.1,112.8,2.6c-25.2,36.4-61.4,57.5-99,78.7c54.2,9.7,105.7,5.9,159.6,0.9
			c-127,53.3-268.4,67.8-404.5,81.7c-8.8,0.8-17.5,1.9-26.3,2.8l-67.2-7.5c0,0-21-6.9-39.5-15.5c21.2-18.7,39.7-38,67.5-56.5
			c-40.6,5.3-80.7,9-121.5,7.9c13.2-13.7,27.7-22.2,39.9-36.3c0,0,153.5-71.7,199.4-133c-30.6-11.9-59.5-28.4-84-50.7
			c88.3-17.5,46.6-1.2-27.4-84.9c30.3,0.6,59.3-3.8,90.1-5.7c-58.5-32.5-80.5-67.4-116.2-107.2c41.5,3.8,81,10,121.7,10.4
			C814,598.5,773,562.3,739.8,519.6z"/>
		<path fill="#6B59CC" d="M402.6,719.4c36.6,6,73.6,10.3,110.7,7.3C410,682.4,300.8,625,235.2,528.9c21.3,10,91.5,39.1,137.9,49.2
			c0,0.2-180.4-147.2-224.8-252c56.5,38.5,113.3,76.2,176,105.7c-95.4-85.9-188-181.8-231.2-306.1
			c66.1,50.7,204.7,145.1,204.7,145.1c16,25,54.5,46.6,74.4,69.3c39.3,40.9,69.7,79.7,108.6,119.6c-0.8,2.3-3.3,1.6-5.2,1.6
			c-18.2,0.2-31.6,7-49.7,5.2c-22.4-2.3-75.7-18.2-75.7-18.2l5.1,4.5c0.8,1,31.5,23.8,41.5,34.3c40.1,41.6,68.5,75.2,115.4,108.9
			c-37.3,0.7-71.1-0.8-107.6-9.6c62,55.3,127.2,98.2,197.2,142.3c-22.3,4.3-43.9,4.5-65.3,6.1c45.3,38.6,95.7,68.8,149.1,95.9
			C682.7,831.2,521.1,811.2,402.6,719.4z"/>
		<path fill="#A86FD5" d="M685.6,830.7c-53.4-27.2-103.8-57.3-149.1-95.9c21.4-1.6,42.9-1.8,65.3-6.1c-70-44.1-135.1-87-197.2-142.3
			c36.6,8.8,70.3,10.2,107.6,9.6c-46.9-33.6-73.5-52.2-129.6-109.6c-10.1-10.3-32.3-38.1-32.3-38.1s41.2,7.9,71.1,9.9
			c38.7,2.5,59.5,1.5,59.5,1.5c-52.2-41.7-167.1-163.6-183-188.9c75.3,50.9,142.5,92.2,216.4,133.9c33.6,43.3,72.7,82.6,113.2,120.2
			c-36.3,4.5-68.3,5.8-105,3.6c45.8,46.5,97.9,81.5,157,106.7c-40.2,5-80.2,8.4-120.5,8.2c48.7,37,99.5,70,156.8,92.3
			c-29.4,8.1-59.3,11.1-90.6,14c38.2,33.1,79,59.1,125.5,77.3c-12.4,6.3-24.7,9.9-38.4,13.8c46,25.2,1.4-36.1,156.7,33.6
			c-78.9,16.5-185.4,6.3-266.1-24.4c24.8-4.9,48.9-10.1,73.1-17.1C677.2,832.5,682.7,831.2,685.6,830.7z"/>
		<path fill="#DF6368" d="M712.2,840.8c13.7-3.8,26-7.5,38.4-13.8c-46.5-18.2-87.3-44.2-125.5-77.3c31.3-3,61.2-5.9,90.6-14
			c-57.3-22.4-108.1-55.4-156.8-92.3c40.4,0.3,80.3-3.2,120.5-8.2c-59.1-25.2-111.2-60.2-157-106.7c36.6,2.3,68.7,0.9,105-3.6
			c-40.5-37.5-79.6-76.8-113.2-120.2c74.3,40,150,77.3,225.5,114.9c0,0,74.2,78.8,113.4,116.6c-40.7-0.4-80.3-6.6-121.7-10.4
			c35.8,39.7,69.1,72.8,116.2,107.2c-31.6,4.5-55.2,5.7-90.1,5.7c30.1,31.4,53.2,48.9,92,73.9c0,0-38.6,9.5-64.6,11
			c24.5,22.3,84,50.7,84,50.7S758.2,865.9,712.2,840.8z"/>
		<path fill="#E69465" d="M1221.1,1030.8c-47.9,9.5-105.3,8.8-159.6-0.9c37.7-21.2,73.8-42.3,99-78.7c-38.3,3.6-75.1,2.3-112.8-2.6
			c116.8-47,217.5-130.7,305.2-221c34.6-38.6,69.1-77.3,103.6-116.1c15.2-16.8,24.2-27.5,40-43.7c1.2-1.2,11.3-11.1,11.3-11.1
			c-47.8,62.8-56.8,145.6-62.8,221.8c-13.3,41.5-31.9,83.6-60,117.5c8.6-34.8,15.5-70.2,18.1-104.7
			c-45.2,91.1-117.1,155.6-203.7,207c32.9,3,63.7-2,94.7-11.3C1271.8,1004.6,1247.6,1020.3,1221.1,1030.8z"/>
		<path fill="#6B59CC" d="M431.5,1211.4c-67.1,39.3-118.8,99-149.5,170.3c-8.2-26.1-11.8-51.9-13.3-79c-33,19.5-61.4,39.2-87,68.8
			c3.2-30.4,10.5-58.4,19.4-86.8c-38.7,13.2-74.3,30.3-106.1,55.1c5.1-25.5,16.1-50.5,25.9-72.8c-35.7,8.5-72.1,24.8-105.8,41.4
			c53.3-112.1,174.2-167.6,289-196.3"/>
		<path fill="#6B59CC" d="M1993.4,460.1c-14.6,33.6-39.6,61.2-63,88.9c-33.2,38.6-70.3,73.2-111.5,102.7
			c30.9-6.1,87.5-28.9,87.5-28.9c-54.6,66.7-127.2,114.7-205.5,150.4c27.2,0.2,53.9-3.6,80.9-6.6c-74.1,55.3-168.2,80.1-258.1,98.1
			c27.8-13.1,47.5-29.1,73.1-47.2c22.7-16.1,33-52.5,38.2-54.7c52.8-35.8,113.8-68.3,160.1-112.7c-24.6,3.8-48,7.1-72.7,8.5
			c35.4-31.2,70.7-63.3,102.2-97.5C1825.4,561.3,1941.3,498.9,1993.4,460.1z"/>
		<path fill="#6B59CC" d="M825.2,1494.7c-40.6-146.3,106.9-287.7,251.2-242.7c-136.2-11.1-239.4,126.8-179.2,252.2
			c40.9,111.5,193.9,146,281.6,66.6C1079.1,1702,862,1654.1,825.2,1494.7z"/>
		<path fill="#E69465" d="M1490.6,567.9c-111.6,66.7-224.3,96.6-354.2,80.7c44-5.5,118-57.5,146.6-80.3
			c97.5-77.6,222.4-93.8,344.9-101.5c-39,23.5-88.2,53-120,90.1C1506.7,558.3,1490.6,567.9,1490.6,567.9z"/>
		<path fill="#DF6368" d="M1627.9,466.8c-120.5,8.2-239.8,40.9-344.9,101.5c-49.4,11.8-96.9,27.5-140.3,55.2
			c11.9-26.1,30-47.6,49.3-68.5c-30.1,9.4-57.7,23.5-84.3,40.7c75.4-112.1,229.5-171.3,359.8-130.8
			C1520.4,458.4,1575.1,453.1,1627.9,466.8z"/>
		<path fill="#DF6368" d="M682.6,1001c-30.2,28.6-36.7,32.3-53,42.7c40.7,1.1,80.9-2.6,121.5-7.9c-20.1,19.8-41.8,38.1-67.5,56.5
			c33.4,11.9,78.3,19.7,106.8,23c-87.2,7.7-145.1,17.7-258.6,51c-27.9,8.2-58,1.3-86.6,3.8c20-18.4,41.7-34.1,64.9-47.9
			c-34.1-5.4-68-5.3-102.2-2.6c14.3-15.7,30.6-29,47.3-42C528,1058.6,612.5,1028.2,682.6,1001z"/>
		<path fill="#A86FD5" d="M455.2,1077.6c-16.7,12.9-33.1,26.2-47.3,42c34.2-2.7,68.1-2.8,102.2,2.6c-23.2,13.8-44.9,29.5-64.9,47.9
			c28.7-2.5,54-5.4,86.6-3.8c-26.4,8.3-68.8,25.9-100.2,45.1c-49.2,2.6-96.6,23.5-141.8,41.9c0,0,2.5-5.6,3.8-8
			c15.1-27.6,36-49.9,56.6-71.2c0,0-13.6,0.3-27.3,2.2c-44.2,6.2-86.2,21.7-125.7,42.1c14.5-25.1,33.7-47.5,54.3-67.7
			c19.8-19.5,34.8-26.6,52.6-38.7C354.3,1099.8,405.1,1089.7,455.2,1077.6z"/>
		<path fill="#DF6368" d="M1559.1,651.5c46-10.3,91.6-21,136.8-36.2c-26.9,27.3-58.6,49.6-88.2,74.9c19.6,2.6,53.3-3,74.6-0.2
			c-38.3,33.6-99.1,68-142,96.2c21.6,3.2,42,4.5,63.4,6.1c-43.9,29.6-79.3,59.9-130.7,75.5l-12.3,2.3c0.6-9.3,1.2-22.2,1.7-31.5
			c15.1-6.3,18.6-15.8,31.1-26.2c0.8-0.7-16.1-6.4-29-10.1c0,0,0,0,0.9-13.8c26-14.4,50.9-31,72.3-52.1c-23.6,0.9-42.5,5.9-67.6-6.3
			c0,0,1.1-7.8,1.5-11.1C1472,715.6,1531.9,677.2,1559.1,651.5z"/>
		<path fill="#E69465" d="M1053,1422.9c-8.6-37.7-55.4-44.2-88.4-39c66.7-32.5,157.6-26.5,214.1,23.2
			c18.4,43.6,13.3,93.6-15.9,132.3c-19.3-55.6-58.8-119.5-120.7-139.7c64,47.2,72.8,123.4,32.3,188.8c-34.5,3.2-67.9-6.2-93.6-27.5
			C1035.2,1545.5,1077.1,1477.1,1053,1422.9z"/>
		<path fill="#A86FD5" d="M1696,615.3c45.3-15.7,87-33.4,128.6-54.2c-31.6,34.3-66.9,66.3-102.2,97.5c24.7-1.5,48.1-4.7,72.7-8.5
			c-46.3,44.4-102,84.9-157.8,115.6c0,0,15.5,3.5,34,3.4c-63.7,55.4-103.3,75.4-147.6,95.5c-19.3,3.2-42.6,5.6-62.9,5.4
			c51.3-15.7,99.1-48.2,143-77.8c-21.4-1.5-41.8-2.8-63.4-6.1c42.9-28.2,85.5-54.7,123.8-88.3c-21.2-2.6-36.8-5-56.4-7.6"/>
		<path fill="#DF6368" d="M1294.3,987.2c-30.2,11.1-63.8,15.5-96.6,12.5c86.6-51.3,160.4-117.2,205.6-208.2
			c-3.6,56.3-18.1,104.7-18.1,104.7c28.1-33.8,46.7-76,60-117.5c0,0-4.1,53.5-7.1,80.6c-6.5,58.7-27,120-70.1,160.1
			c1.8-18.9,3.5-37.8-3.4-56.7c-18,34.3-37.9,66.1-72.2,86.1C1292.4,1048.7,1301.3,1005.3,1294.3,987.2L1294.3,987.2z"/>
		<path fill="#A86FD5" d="M897.1,1503.7c-59.8-125.6,43.3-262.6,179.3-251.7c49,14.3,87.6,42.9,115.2,86.5
			C1069.3,1206.2,836.4,1328.4,897.1,1503.7z"/>
		<path fill="#DF6368" d="M1178.7,1407.2c-56.5-49.7-147.4-55.8-214.1-23.2c0,0,10.1-19.7,45.8-33.7c8.1-3.2,21-6.4,21-6.4
			c60.5-50.2,177.1,9.6,187.8,92.5C1208.5,1422.7,1194.8,1413.3,1178.7,1407.2z"/>
		<path fill="#EEBE78" d="M1074.3,1588.6c40.5-65.3,24.2-145.9-39.8-193.1c62,20.2,117.4,80.6,128.3,144
			C1142.5,1567.5,1110.4,1584.1,1074.3,1588.6z"/>
		<path fill="#DF6368" d="M1053,1422.9c24.1,54.2-17.7,122.6-72.2,138.2c-25.7-21.5-41.2-51.2-47.2-84.2
			c10.7,9.4,25.3,18.7,42.2,23.2C1022.1,1511.8,1065.1,1467.9,1053,1422.9z"/>
		<path fill="#EEBE78" d="M1559.1,651.5c-27.2,25.7-56.1,46.2-87.5,67.4c0,0,3.8-29.6,8.3-52.9
			C1479.9,666,1520.9,661.1,1559.1,651.5z"/>
		<path fill="#EEBE78" d="M1470.1,730c20.6,4.8,44,7.3,67.6,6.3c-21.4,21.1-46.4,39.9-72.4,54.3
			C1466.6,770.5,1467.6,751.6,1470.1,730z"/>
		<path fill="#EEBE78" d="M1464.4,802.3c12.9,3.7,26.9,6.1,40,7.5c0,0-19.7,19.3-42,28.8C1463.3,825.5,1463.7,814.2,1464.4,802.3z"
			/>
		<path fill="#A86FD5" d="M898,1505.8c-0.2-0.5-0.5-1.1-0.7-1.6C897.5,1504.8,897.7,1505.3,898,1505.8z"/>
		<path fill="#FEFEFE" d="M373,578.2"/>
	</g>
</g>
<g id="Слой_2">
	<g>
		<path fill="#6B59CC" d="M1245.5,1514.6h49.9c3.5,28,16.1,49,37.9,63.2s52.7,21.3,92.7,21.3c42.3,0,74.5-5.9,96.5-17.8
			c22.1-11.9,33.1-29.2,33.1-51.8c0-15.9-5.5-28.4-16.5-37.3c-11-8.9-28.8-15.2-53.5-18.9l-109.5-16.3
			c-42.7-6.2-73.5-17.4-92.4-33.6c-18.8-16.2-28.2-39.3-28.2-69.3c0-34,14.9-60.9,44.7-80.8c29.8-19.9,70.7-29.8,122.7-29.8
			c52.4,0,93.6,10.8,123.6,32.4c29.9,21.6,45.2,51.5,45.9,89.6h-49.2c-3.7-25.6-16.2-44.8-37.4-57.5c-21.3-12.7-51.2-19.1-89.8-19.1
			c-34.4,0-61.2,5.5-80.4,16.6c-19.2,11.1-28.8,26.3-28.8,45.7c0,16.2,6.1,28.6,18.4,37.3c12.2,8.7,34.9,15.4,67.9,20.3l96.7,14.9
			c41.6,6.2,71.5,17.3,89.8,33.1c18.2,15.8,27.4,38.4,27.4,67.8c0,39.7-15.8,70-47.5,90.8c-31.7,20.8-77.9,31.2-138.6,31.2
			c-53.1,0-94.9-11.4-125.3-34.3C1265.2,1589.4,1248.5,1556.8,1245.5,1514.6z"/>
	</g>
	<g>
		<path fill="#6B59CC" d="M770,1513c-10,41-31.7,73.5-65.1,97.6c-33.5,24.1-73.8,36.1-121,36.1c-60.4,0-109.1-18.5-146-55.6
			c-36.9-37-55.4-85.9-55.4-146.5c0-60.2,18.5-108.9,55.6-146c37-37.2,85.6-55.7,145.8-55.7c60.4,0,108.9,18.3,145.5,54.9
			c36.6,36.6,54.9,85.3,54.9,146.2v11.5H436c2.8,45.6,17,80.9,42.7,105.7c25.7,24.9,60.8,37.3,105.2,37.3c32.2,0,59.7-7.5,82.5-22.4
			c22.8-14.9,38.8-35.9,48.1-63H770z M437.4,1414.1H728c-2.8-37.5-17.4-67.6-43.8-90.3c-26.4-22.7-59.8-34-100.3-34
			c-41.2,0-75.1,11.3-101.7,34C455.6,1346.5,440.6,1376.6,437.4,1414.1z"/>
	</g>
</g>
</svg>
